<svg xmlns="http://www.w3.org/2000/svg" viewBox="0 0 1400 900" width="1400" height="900" role="img" aria-label="경쟁 PvP 아레나 콘셉트의 counterplay와 가독성 흐름">
  <title>PvP 대응성 판단</title>
  <desc>경쟁 PvP 아레나 콘셉트의 counterplay와 가독성 흐름</desc>
  <defs>
    <marker id="open-arrow" viewBox="0 0 12 12" refX="10" refY="6" markerWidth="10" markerHeight="10" markerUnits="userSpaceOnUse" orient="auto">
      <path d="M 2 2 L 10 6 L 2 10" fill="none" stroke="#5B6675" stroke-width="2" stroke-linecap="round"/>
    </marker>
  </defs>
  <rect width="1400" height="900" fill="#F7FAFD"/>
  <rect x="52" y="52" width="8" height="138" rx="4" fill="#1F6FB2"/>
  <text x="88" y="86" fill="#1F6FB2" font-size="18" font-weight="700">ST-G04 · CONCEPT</text>
  <text x="88" y="148" fill="#1F2733" font-size="54" font-weight="700">PvP 대응성 판단</text>
  <text x="88" y="192" fill="#5B6675" font-size="24">counterplay·가독성·안전 보호를 match 검증으로 연결합니다.</text>
  <rect x="52" y="274" width="1296" height="356" rx="28" fill="#FFFFFF" stroke="#D6E0EC" stroke-width="2"/>
  <path d="M 292 445 L 308 445" fill="none" stroke="#5B6675" stroke-width="2" stroke-linecap="round" marker-end="url(#open-arrow)"/>
  <path d="M 1012 445 L 1028 362" fill="none" stroke="#5B6675" stroke-width="2" stroke-linecap="round" marker-end="url(#open-arrow)"/>
  <path d="M 1252 362 L 1028 545" fill="none" stroke="#5B6675" stroke-width="2" stroke-linecap="round" marker-end="url(#open-arrow)"/>
  <path class="decision-branch" d="M 532 445 L 548 328" fill="none" stroke="#534AB7" stroke-width="2" stroke-linecap="round" marker-end="url(#open-arrow)"/>
  <g class="decision-branch" aria-label="선택지 1: 공격 확정">
    <rect x="560" y="298" width="180" height="60" rx="14" fill="#F8F6FF" stroke="#534AB7" stroke-width="2"/>
    <text x="574" y="323" fill="#3C3489" font-size="15" font-weight="700">공격 확정</text>
    <text x="574" y="344" fill="#354152" font-size="13">counterplay 확인</text>
  </g>
  <path class="decision-branch" d="M 752 328 L 788 445" fill="none" stroke="#0F7A5F" stroke-width="2" stroke-linecap="round" marker-end="url(#open-arrow)"/>
  <path class="decision-branch" d="M 532 445 L 548 535" fill="none" stroke="#534AB7" stroke-width="2" stroke-linecap="round" marker-end="url(#open-arrow)"/>
  <g class="decision-branch" aria-label="선택지 2: 회피·차단">
    <rect x="560" y="505" width="180" height="60" rx="14" fill="#F8F6FF" stroke="#534AB7" stroke-width="2"/>
    <text x="574" y="530" fill="#3C3489" font-size="15" font-weight="700">회피·차단</text>
    <text x="574" y="551" fill="#354152" font-size="13">telegraph 확인</text>
  </g>
  <path class="decision-branch" d="M 752 535 L 788 445" fill="none" stroke="#0F7A5F" stroke-width="2" stroke-linecap="round" marker-end="url(#open-arrow)"/>
  <text x="800" y="354" fill="#0F7A5F" font-size="14" font-weight="700">재결합: 판단 기준</text>
  <g aria-label="읽기 순서 1: 교전 목표">
    <rect x="80" y="370" width="200" height="150" rx="18" fill="#E8F1FB" stroke="#1F6FB2" stroke-width="2"/>
    <rect x="108" y="398" width="52" height="32" rx="16" fill="#1F6FB2"/>
    <text x="134" y="420" text-anchor="middle" fill="#FFFFFF" font-size="18" font-weight="700">1</text>
    <text x="168" y="420" fill="#124267" font-size="14" font-weight="700">제약</text>
      <text x="108" y="450" fill="#124267" font-size="17" font-weight="700">교전 목표</text>
      <text x="108" y="488" fill="#354152" font-size="13" font-weight="400">경쟁 목적을 정합니다</text>
      <text x="108" y="509" fill="#354152" font-size="13" font-weight="400">.</text>
  </g>
  <g aria-label="읽기 순서 2: 대안 두 가지">
    <rect x="320" y="370" width="200" height="150" rx="18" fill="#ECEBFB" stroke="#534AB7" stroke-width="2"/>
    <rect x="348" y="398" width="52" height="32" rx="16" fill="#534AB7"/>
    <text x="374" y="420" text-anchor="middle" fill="#FFFFFF" font-size="18" font-weight="700">2</text>
    <text x="408" y="420" fill="#3C3489" font-size="14" font-weight="700">선택지</text>
      <text x="348" y="450" fill="#3C3489" font-size="17" font-weight="700">대안 두 가지</text>
      <text x="348" y="488" fill="#354152" font-size="13" font-weight="400">보호와 확장을 비교합</text>
      <text x="348" y="509" fill="#354152" font-size="13" font-weight="400">니다.</text>
  </g>
  <g aria-label="읽기 순서 3: telegraph">
    <rect x="800" y="370" width="200" height="150" rx="18" fill="#E7F5EF" stroke="#0F7A5F" stroke-width="2"/>
    <rect x="828" y="398" width="52" height="32" rx="16" fill="#0F7A5F"/>
    <text x="854" y="420" text-anchor="middle" fill="#FFFFFF" font-size="18" font-weight="700">3</text>
    <text x="888" y="420" fill="#085041" font-size="14" font-weight="700">판단 기준</text>
      <text x="828" y="450" fill="#085041" font-size="17" font-weight="700">telegraph</text>
      <text x="828" y="488" fill="#354152" font-size="13" font-weight="400">가독성 기준을 둡니다</text>
      <text x="828" y="509" fill="#354152" font-size="13" font-weight="400">.</text>
  </g>
  <g aria-label="읽기 순서 4: match 검증">
    <rect x="1040" y="282" width="200" height="160" rx="18" fill="#FFF3DF" stroke="#A75B00" stroke-width="2"/>
    <rect x="1068" y="310" width="52" height="32" rx="16" fill="#A75B00"/>
    <text x="1094" y="332" text-anchor="middle" fill="#FFFFFF" font-size="18" font-weight="700">4</text>
    <text x="1128" y="332" fill="#814600" font-size="14" font-weight="700">결정</text>
      <text x="1068" y="362" fill="#814600" font-size="17" font-weight="700">match 검증</text>
      <text x="1068" y="400" fill="#354152" font-size="13" font-weight="400">안전과 fairnes</text>
      <text x="1068" y="421" fill="#354152" font-size="13" font-weight="400">s를 봅니다.</text>
  </g>
  <g aria-label="읽기 순서 5: 검증 계획">
    <rect x="1040" y="465" width="200" height="160" rx="18" fill="#FCECF3" stroke="#A52B5D" stroke-width="2"/>
    <rect x="1068" y="493" width="52" height="32" rx="16" fill="#A52B5D"/>
    <text x="1094" y="515" text-anchor="middle" fill="#FFFFFF" font-size="18" font-weight="700">5</text>
    <text x="1128" y="515" fill="#7A1942" font-size="14" font-weight="700">검증</text>
      <text x="1068" y="545" fill="#7A1942" font-size="17" font-weight="700">검증 계획</text>
      <text x="1068" y="583" fill="#354152" font-size="13" font-weight="400">관찰과 evidenc</text>
      <text x="1068" y="604" fill="#354152" font-size="13" font-weight="400">e를 남깁니다.</text>
  </g>
  <rect x="52" y="704" width="1296" height="132" rx="20" fill="#E8F1FB" stroke="#1F6FB2" stroke-width="2"/>
  <text x="84" y="758" fill="#124267" font-size="18" font-weight="700">다음 경계</text>
  <text x="84" y="798" fill="#1F2733" font-size="24">공정성 해석과 player safety는 숙련도별 관찰을 통해 검토합니다.</text>
</svg>
